<svg xmlns="http://www.w3.org/2000/svg" width="104" height="20" viewBox="0 0 104 20">
    <g fill="#FFF" fill-rule="evenodd">
        <path d="M4.488 11.224V19H0V1h4.488v6.978h8.155V1H17v18h-4.357v-7.776H4.488M76.503 16.637c2.227 0 5.365-1.32 5.365-6.637 0-5.316-3.138-6.64-5.365-6.64-2.233 0-5.372 1.324-5.372 6.64 0 5.317 3.14 6.637 5.372 6.637zm0-16.637C79.116 0 86 1.084 86 10c0 8.914-6.884 10-9.497 10C73.884 20 67 18.914 67 10c0-8.916 6.884-10 9.503-10zM65.968 9H61.83v.005h-4.788v3.472h4.55c-.814 3.269-3.26 4.16-5.093 4.16-2.229 0-5.366-1.32-5.366-6.637 0-5.316 3.137-6.64 5.366-6.64 1.843 0 4.306.902 5.106 4.214h4.2C64.675.883 58.858 0 56.5 0 53.884 0 47 1.084 47 10c0 8.914 6.884 10 9.5 10 2.618 0 9.5-1.086 9.5-10 0-.348-.012-.676-.032-1"/>
        <path d="M33 1v.42c1.227.61 2.28 1.528 3.144 2.9h2.264V19h4.312V4.32H48V1H33"/>
        <path d="M26.502 16.637c2.227 0 5.37-1.32 5.37-6.637 0-5.316-3.143-6.64-5.37-6.64-2.232 0-5.371 1.324-5.371 6.64 0 5.317 3.14 6.637 5.37 6.637zm0-16.637C29.116 0 36 1.084 36 10c0 8.914-6.884 10-9.498 10C23.884 20 17 18.914 17 10c0-8.916 6.884-10 9.502-10zM88.042 1s4.16 3.089 4.16 8.606C92.202 15.126 88 19 88 19l16-9.198L88.042 1"/>
    </g>
</svg>
